<svg xmlns="http://www.w3.org/2000/svg" version="1.1" xmlns:xlink="http://www.w3.org/1999/xlink" xmlns:svgjs="http://svgjs.dev/svgjs" width="1500" height="1500" viewBox="0 0 1500 1500"><rect width="1500" height="1500" fill="#3a3836"></rect><g transform="matrix(0.6666666666666666,0,0,0.6666666666666666,249.39393939393938,552.7302370520964)"><svg viewBox="0 0 396 156" data-background-color="#3a3836" preserveAspectRatio="xMidYMid meet" height="590" width="1500" xmlns="http://www.w3.org/2000/svg" xmlns:xlink="http://www.w3.org/1999/xlink"><g id="tight-bounds" transform="matrix(1,0,0,1,0.2400000000000091,0.2391941183210946)"><svg viewBox="0 0 395.52 155.5216117633578" height="155.5216117633578" width="395.52"><g><svg viewBox="0 0 759.4911598484211 298.63796849627954" height="155.5216117633578" width="395.52"><g transform="matrix(1,0,0,1,363.97115984842105,98.03979989983446)"><svg viewBox="0 0 395.52000000000004 102.55836869661063" height="102.55836869661063" width="395.52000000000004"><g id="textblocktransform"><svg viewBox="0 0 395.52000000000004 102.55836869661063" height="102.55836869661063" width="395.52000000000004" id="textblock"><g><svg viewBox="0 0 395.52000000000004 102.55836869661063" height="102.55836869661063" width="395.52000000000004"><g transform="matrix(1,0,0,1,0,0)"><svg width="395.52000000000004" viewBox="-0.25 -36 181.68 47.050000000000004" height="102.55836869661063" data-palette-color="#60dae7"><g class="wordmark-text-0" data-fill-palette-color="primary" id="text-0"><path d="M-0.25 0L12.75-33.85 17.45-33.85 30.5 0 24.15 0 21.05-8.85 8.85-8.85 5.65 0-0.25 0ZM10.45-13.25L19.5-13.25Q17.9-17.75 16.75-21.43 15.6-25.1 15-27.2L15-27.2Q14.3-24.95 13.15-21.3 12-17.65 10.45-13.25L10.45-13.25ZM35.85 8.75L37.25 4.4Q38 4.7 38.85 5.03 39.7 5.35 40.65 5.65 41.6 5.95 42.57 6.15 43.55 6.35 44.5 6.35L44.5 6.35Q47.3 6.35 48.55 4.67 49.8 3 49.8 0.35L49.8 0.35Q49.8-2.25 48.7-4.9L48.7-4.9Q47.85-2.35 46.02-1.03 44.2 0.3 41.2 0.3L41.2 0.3Q38.85 0.3 37.12-0.58 35.4-1.45 34.25-3.08 33.1-4.7 32.55-7 32-9.3 32-12.1L32-12.1Q32-14.95 32.87-17.38 33.75-19.8 35.32-21.55 36.9-23.3 39.1-24.3 41.3-25.3 43.95-25.3L43.95-25.3Q45.15-25.3 46.52-25.15 47.9-25 49.22-24.78 50.55-24.55 51.72-24.3 52.9-24.05 53.75-23.85L53.75-23.85 53.5-10.1Q53.45-8.6 53.67-7.35 53.9-6.1 54.2-4.88 54.5-3.65 54.75-2.4 55-1.15 55 0.35L55 0.35Q55 5.65 52.3 8.25 49.6 10.85 45 10.85L45 10.85Q43.5 10.85 42 10.58 40.5 10.3 39.22 9.95 37.95 9.6 37.05 9.25 36.15 8.9 35.85 8.75L35.85 8.75ZM42.15-3.7Q43.35-3.7 44.37-4.5 45.4-5.3 46.2-6.63 47-7.95 47.45-9.65 47.9-11.35 47.9-13.15L47.9-13.15 47.9-20.75Q47.4-20.9 46.4-21.1 45.4-21.3 44.6-21.3L44.6-21.3Q42.7-21.3 41.47-20.65 40.25-20 39.5-18.85 38.75-17.7 38.45-16.1 38.15-14.5 38.15-12.6L38.15-12.6Q38.15-10.85 38.25-9.25 38.35-7.65 38.77-6.4 39.2-5.15 40-4.42 40.8-3.7 42.15-3.7L42.15-3.7ZM71.2-19.7Q70.3-19.7 69.4-19.25 68.5-18.8 67.8-18.03 67.09-17.25 66.65-16.15 66.2-15.05 66.2-13.7L66.2-13.7 66.2 0 60.5 0 60.5-12.6Q60.5-15.6 60.09-17.63 59.7-19.65 59.25-20.9L59.25-20.9Q58.7-22.35 58.05-23.25L58.05-23.25 62.55-25.05Q63-24.5 63.5-23.7L63.5-23.7Q63.9-23 64.3-22.05 64.7-21.1 64.95-19.8L64.95-19.8Q65.95-22.7 67.84-23.98 69.75-25.25 72.15-25.25L72.15-25.25Q73.3-25.25 74.3-24.98 75.3-24.7 75.25-24.7L75.25-24.7 73.65-19.15Q73.7-19.15 73.07-19.43 72.45-19.7 71.2-19.7L71.2-19.7ZM88.39-25.5Q94.14-25.5 96.74-22.1 99.34-18.7 99.34-12.75L99.34-12.75Q99.34-9.95 98.64-7.53 97.94-5.1 96.52-3.33 95.09-1.55 92.94-0.53 90.79 0.5 87.94 0.5L87.94 0.5Q85.09 0.5 83.02-0.38 80.94-1.25 79.59-2.9 78.24-4.55 77.62-6.9 76.99-9.25 76.99-12.2L76.99-12.2Q76.99-15.05 77.69-17.48 78.39-19.9 79.82-21.68 81.24-23.45 83.39-24.48 85.54-25.5 88.39-25.5L88.39-25.5ZM87.89-21.3Q86.44-21.3 85.52-20.65 84.59-20 84.07-18.82 83.54-17.65 83.34-16.07 83.14-14.5 83.14-12.7L83.14-12.7Q83.14-10.85 83.37-9.2 83.59-7.55 84.19-6.33 84.79-5.1 85.82-4.4 86.84-3.7 88.44-3.7L88.44-3.7Q89.89-3.7 90.82-4.35 91.74-5 92.27-6.18 92.79-7.35 92.99-8.9 93.19-10.45 93.19-12.25L93.19-12.25Q93.19-14.1 92.97-15.75 92.74-17.4 92.14-18.65 91.54-19.9 90.52-20.6 89.49-21.3 87.89-21.3L87.89-21.3Z" fill="#60dae7" data-fill-palette-color="primary"></path><path d="M111.84 0L124.84-33.85 129.54-33.85 142.59 0 136.24 0 133.14-8.85 120.94-8.85 117.74 0 111.84 0ZM122.54-13.25L131.59-13.25Q129.99-17.75 128.84-21.43 127.69-25.1 127.09-27.2L127.09-27.2Q126.39-24.95 125.24-21.3 124.09-17.65 122.54-13.25L122.54-13.25ZM151.74 10.05L146.04 11.05 146.04-12.6Q146.04-15.6 145.64-17.63 145.24-19.65 144.79-20.9L144.79-20.9Q144.24-22.35 143.59-23.25L143.59-23.25 148.09-25.05Q148.69-24.45 149.19-23.55L149.19-23.55Q149.59-22.8 149.99-21.73 150.39-20.65 150.59-19.2L150.59-19.2Q151.44-22.2 153.29-23.75 155.14-25.3 158.44-25.3L158.44-25.3Q160.79-25.3 162.51-24.43 164.24-23.55 165.36-21.93 166.49-20.3 167.04-18 167.59-15.7 167.59-12.9L167.59-12.9Q167.59-10.05 166.74-7.63 165.89-5.2 164.31-3.45 162.74-1.7 160.54-0.7 158.34 0.3 155.64 0.3L155.64 0.3Q154.69 0.3 153.71 0.2 152.74 0.1 151.74 0L151.74 0 151.74 10.05ZM157.49-21.3Q156.24-21.3 155.19-20.45 154.14-19.6 153.36-18.2 152.59-16.8 152.16-15.05 151.74-13.3 151.74-11.45L151.74-11.45 151.74-4.25Q152.24-4.1 153.24-3.9 154.24-3.7 154.99-3.7L154.99-3.7Q156.89-3.7 158.14-4.35 159.39-5 160.14-6.15 160.89-7.3 161.19-8.9 161.49-10.5 161.49-12.4L161.49-12.4Q161.49-14.15 161.39-15.75 161.29-17.35 160.86-18.6 160.44-19.85 159.64-20.58 158.84-21.3 157.49-21.3L157.49-21.3ZM177.88 0.2Q175.23 0.2 173.83-1.38 172.43-2.95 172.43-5.45L172.43-5.45 172.43-24.9 178.13-24.9 178.13-5.95Q178.13-4.8 178.48-4.4 178.83-4 179.53-4L179.53-4Q179.73-4 179.96-4 180.18-4 180.38-4.05L180.38-4.05Q180.58-4.05 180.83-4.1L180.83-4.1 181.43-0.5Q181.08-0.3 180.53-0.15L180.53-0.15Q180.08 0 179.41 0.1 178.73 0.2 177.88 0.2L177.88 0.2ZM175.38-36Q176.98-36 177.83-35.05 178.68-34.1 178.68-32.6L178.68-32.6Q178.68-31.1 177.81-30.1 176.93-29.1 175.23-29.1L175.23-29.1Q173.63-29.1 172.76-30.08 171.88-31.05 171.88-32.45L171.88-32.45Q171.88-34 172.76-35 173.63-36 175.38-36L175.38-36Z" fill="#4be62e" data-fill-palette-color="secondary"></path></g></svg></g></svg></g></svg></g></svg></g><g><svg viewBox="0 0 339.7595904 298.63796849627954" height="298.63796849627954" width="339.7595904"><g><svg xmlns="http://www.w3.org/2000/svg" xmlns:xlink="http://www.w3.org/1999/xlink" version="1.1" x="0" y="0" viewBox="4.999594636905198 10.448142140232811 90.00079098847324 79.10785785976717" enable-background="new 0 0 100 100" xml:space="preserve" height="298.63796849627954" width="339.7595904" class="icon-icon-0" data-fill-palette-color="accent" id="icon-0"><g fill="#65ec0a" data-fill-palette-color="accent"><path d="M18.244 42.601l0.114-0.106c0.135-0.566 0.4-2.446-1.441-4.222-1.833-1.768-4.001-1.827-4.655-1.801l-0.022 0.022c-0.01 0.646 0.096 2.773 1.858 4.597C15.866 42.921 17.684 42.719 18.244 42.601z" fill="#65ec0a" data-fill-palette-color="accent"></path><path d="M55.064 64.671c1.27-1.313 1.345-2.848 1.34-3.313l-0.018-0.016c-0.472-0.02-2.035 0.023-3.355 1.297-0.24 0.231-0.43 0.467-0.579 0.696v-4.961c1.123 0.978 2.59 1.571 4.192 1.571h17.129c2.256 0 4.238-1.174 5.379-2.94h3.738c3.526 0 6.396-2.869 6.396-6.396v-5.926c0.595 0.027 1.609-0.115 2.602-1.144 1.278-1.322 1.355-2.866 1.348-3.335l-0.016-0.017c-0.474-0.019-2.048 0.024-3.377 1.307-0.229 0.221-0.408 0.443-0.557 0.663v-0.371c0-0.609-0.494-1.103-1.104-1.103-0.608 0-1.104 0.493-1.104 1.103v4.57c-0.029-0.03-0.057-0.06-0.086-0.09-1.331-1.282-2.904-1.325-3.377-1.307L83.6 44.978c-0.006 0.469 0.07 2.012 1.35 3.334 0.766 0.792 1.542 1.058 2.132 1.127v1.17c0 2.312-1.88 4.189-4.188 4.189h-2.846c0.064-0.32 0.104-0.652 0.117-0.99 0.081-0.479 0.111-1.574-0.969-2.617C78 50.039 76.583 50 76.157 50.016l-0.015 0.016c-0.006 0.421 0.063 1.809 1.213 2.998 0.203 0.212 0.408 0.379 0.609 0.516 0 0.002-0.001 0.003-0.001 0.005 0 2.311-1.88 4.19-4.19 4.19H69.74c0.978-1.123 1.57-2.589 1.57-4.19v-8.397c0.772 0.08 2.306-0.011 3.803-1.562 1.764-1.823 1.869-3.95 1.859-4.597l-0.022-0.022c-0.653-0.026-2.822 0.033-4.653 1.801-0.439 0.424-0.757 0.854-0.986 1.271v-6.356c0-0.054-0.004-0.107-0.012-0.161-0.001-0.004-0.008-0.057-0.017-0.148 0.417 0.075 1.55 0.147 2.653-0.996 1.149-1.189 1.219-2.578 1.213-2.999l-0.016-0.016c-0.426-0.017-1.842 0.022-3.037 1.175-0.363 0.351-0.6 0.707-0.752 1.044 0.127-0.832 0.422-1.783 1.07-2.535 0.852-0.984 2.197-1.484 4.006-1.484 0.607 0 1.104-0.493 1.104-1.103 0-0.61-0.494-1.103-1.104-1.103-2.479 0-4.387 0.757-5.675 2.248-1.992 2.307-1.712 5.554-1.642 6.148v2.971c-0.232-0.526-0.601-1.083-1.168-1.632-1.83-1.767-4-1.826-4.653-1.8L63.26 35.32c-0.01 0.646 0.096 2.774 1.858 4.598 1.627 1.683 3.292 1.646 3.985 1.538v6.071c-0.27-0.434-0.619-0.875-1.07-1.312-2.276-2.196-4.973-2.271-5.783-2.238l-0.029 0.029c-0.012 0.802 0.12 3.446 2.311 5.712 1.767 1.827 3.57 2.023 4.572 1.954v1.881c0 2.312-1.879 4.19-4.188 4.19h-8.271c-2.226 0-4.045-1.744-4.18-3.937l0.051 0.047c0.402 0.084 1.713 0.229 2.989-1.09 1.271-1.313 1.345-2.848 1.341-3.313l-0.019-0.016c-0.472-0.02-2.035 0.023-3.354 1.298-0.604 0.582-0.893 1.18-1.02 1.697v-3.79c0.125 0.049 0.261 0.079 0.404 0.079 3.526 0 6.396-2.87 6.396-6.396v-5.634c0.563 0.055 1.653-0.025 2.72-1.128 1.271-1.314 1.346-2.849 1.34-3.314l-0.017-0.017c-0.472-0.019-2.036 0.025-3.354 1.299-0.305 0.292-0.523 0.588-0.688 0.876V24.67c0.584 0.119 2.375 0.292 4.122-1.515 1.762-1.823 1.867-3.95 1.857-4.597l-0.021-0.022c-0.652-0.026-2.824 0.033-4.654 1.801-0.693 0.67-1.089 1.354-1.304 1.978v-6.053c0-0.609-0.494-1.104-1.103-1.104-0.426 0-0.791 0.243-0.976 0.595-0.2-0.922-0.694-2.006-1.788-3.062-2.275-2.197-4.973-2.271-5.785-2.238l-0.028 0.028c-0.011 0.803 0.119 3.447 2.31 5.712 2.198 2.274 4.457 2.024 5.152 1.877l0.012-0.011v8.174c-0.233-0.526-0.601-1.084-1.169-1.634-1.832-1.767-4-1.826-4.654-1.801l-0.021 0.023c-0.01 0.646 0.097 2.774 1.857 4.597 1.627 1.684 3.295 1.647 3.987 1.539v13.365c0 2.311-1.88 4.19-4.19 4.19-0.145 0-0.279 0.029-0.404 0.079v-1.862c0-0.006-0.002-0.013-0.002-0.02v-3.271l0.011 0.011c0.363 0.077 1.542 0.208 2.688-0.979 1.143-1.182 1.211-2.561 1.205-2.979l-0.016-0.015c-0.424-0.017-1.831 0.021-3.018 1.167-0.482 0.468-0.74 0.944-0.872 1.372v-6.701c0-3.526-2.87-6.396-6.396-6.396h-1.172c-0.024-0.604-0.243-1.447-1.087-2.262-1.298-1.253-2.835-1.295-3.3-1.276l-0.016 0.017c-0.006 0.458 0.068 1.966 1.317 3.258 0.093 0.097 0.187 0.183 0.279 0.264h-3.691c-0.181-0.95-0.669-2.093-1.819-3.203-2.275-2.195-4.971-2.27-5.782-2.236l-0.03 0.028c-0.011 0.802 0.12 3.446 2.311 5.711 2.057 2.128 4.165 2.046 4.998 1.906h7.992c2.311 0 4.19 1.879 4.19 4.189v3.153c-0.268-0.774-0.758-1.626-1.622-2.459-2.276-2.196-4.971-2.27-5.783-2.237l-0.028 0.028c-0.012 0.803 0.12 3.446 2.31 5.713 2.169 2.243 4.397 2.029 5.124 1.882V50.01c0 0.004-0.001 0.008-0.001 0.012v3.474c-0.234-0.502-0.589-1.029-1.128-1.551-1.831-1.766-4-1.825-4.653-1.799l-0.023 0.022c-0.01 0.646 0.096 2.773 1.857 4.598 1.599 1.651 3.233 1.647 3.947 1.545v2.532c0 2.312-1.881 4.19-4.19 4.19H42.17c0.977-1.123 1.57-2.59 1.57-4.19V45.084c0.515 0.068 1.639 0.05 2.736-1.086 1.233-1.276 1.308-2.767 1.301-3.219l-0.017-0.017c-0.456-0.018-1.977 0.023-3.259 1.262-0.356 0.345-0.598 0.693-0.762 1.028v-2.074c0-3.41-2.683-6.205-6.049-6.387-0.165-0.359-0.419-0.739-0.807-1.113-1.298-1.253-2.835-1.296-3.298-1.276l-0.017 0.016c-0.007 0.458 0.067 1.966 1.317 3.259 0.606 0.628 1.221 0.916 1.738 1.04 0.194 0.166 0.442 0.271 0.719 0.271 2.311 0 4.189 1.88 4.189 4.19v6.123c-0.233-0.48-0.579-0.983-1.093-1.479-1.831-1.768-4-1.827-4.654-1.801l-0.023 0.023c-0.009 0.646 0.096 2.773 1.858 4.597 1.573 1.626 3.181 1.648 3.912 1.55v6.286c-0.245-0.694-0.689-1.457-1.462-2.202-2.069-1.998-4.522-2.065-5.261-2.036l-0.027 0.025c-0.01 0.73 0.11 3.136 2.101 5.196 1.956 2.022 3.966 1.851 4.643 1.716-0.071 2.248-1.918 4.056-4.183 4.056h-3.656-4.944v-1.75c0.575 0.089 1.952 0.116 3.296-1.275 1.461-1.511 1.549-3.272 1.54-3.809l-0.019-0.019c-0.541-0.022-2.339 0.026-3.857 1.491-0.466 0.45-0.768 0.908-0.96 1.341v-9.078c0.515 0.068 1.638 0.049 2.734-1.086 1.234-1.275 1.308-2.766 1.302-3.219l-0.017-0.016c-0.457-0.019-1.978 0.024-3.26 1.261-0.349 0.337-0.586 0.678-0.75 1.005 0.11-2.213 1.94-3.981 4.18-3.981 0.608 0 1.103-0.493 1.103-1.103 0-0.61-0.494-1.104-1.103-1.104-3.526 0-6.396 2.87-6.396 6.397v3.526c-0.151-0.366-0.399-0.755-0.796-1.138-1.211-1.169-2.645-1.208-3.077-1.191l-0.017 0.017c-0.005 0.427 0.065 1.832 1.229 3.038 1.095 1.133 2.218 1.09 2.66 1.014v9.678h-1.672c-1.997 0-3.669-1.404-4.088-3.276l0.033 0.032c0.464 0.098 1.971 0.265 3.437-1.252 1.46-1.51 1.547-3.273 1.539-3.809l-0.018-0.021c-0.543-0.021-2.34 0.028-3.857 1.493-0.83 0.802-1.142 1.628-1.236 2.29V44.945c0.013 0.075 0.026 0.143 0.039 0.196l0.113 0.106c0.561 0.119 2.379 0.32 4.148-1.51 1.761-1.823 1.865-3.95 1.857-4.597l-0.023-0.022c-0.653-0.027-2.822 0.033-4.654 1.801-0.971 0.936-1.353 1.899-1.48 2.685V35.41c0-0.609-0.494-1.103-1.104-1.103-0.608 0-1.103 0.493-1.103 1.103v14.023c-0.289-0.658-0.747-1.358-1.458-2.045-2.276-2.196-4.972-2.27-5.784-2.237L11.2 45.179c-0.012 0.803 0.12 3.446 2.309 5.713 2.027 2.096 4.105 2.045 4.962 1.909v6.041c0 1.603 0.594 3.067 1.57 4.19h-5.2c-1.91 0-3.522-1.286-4.025-3.036 0.754 0.09 2.327 0.033 3.863-1.556 1.762-1.823 1.867-3.952 1.858-4.599l-0.023-0.022c-0.654-0.025-2.823 0.033-4.654 1.801-0.909 0.877-1.304 1.777-1.455 2.535-0.202-0.252-0.509-0.416-0.856-0.416-0.181 0-0.349 0.047-0.498 0.124-0.104-0.495-0.366-1.081-0.957-1.65-1.21-1.169-2.645-1.207-3.077-1.19L5 55.04c-0.007 0.426 0.064 1.833 1.229 3.039 0.826 0.854 1.668 1.038 2.222 1.045 0.147 3.397 2.956 6.115 6.389 6.115h10.026 1.672v0.717c0 0.212 0.011 0.423 0.031 0.63-1.035-0.67-2.076-0.695-2.435-0.682l-0.015 0.015c-0.006 0.429 0.063 1.834 1.229 3.039 1.062 1.101 2.15 1.091 2.617 1.021 1.022 1.262 2.514 2.125 4.205 2.326-0.578 0.129-1.271 0.446-1.954 1.152-1.372 1.42-1.453 3.077-1.446 3.579l0.018 0.019c0.508 0.021 2.197-0.027 3.624-1.4 1.433-1.385 1.227-2.848 1.121-3.288l-0.014-0.013h6.902c-0.334 0.157-0.688 0.397-1.039 0.762-1.158 1.199-1.228 2.597-1.222 3.021l0.016 0.015c0.43 0.018 1.854-0.021 3.06-1.185 1.055-1.018 1.057-2.089 0.981-2.591 2.111 0.213 3.766 2 3.766 4.167v6.617c0 2.311-1.88 4.19-4.19 4.19-0.608 0-1.102 0.492-1.102 1.103s0.493 1.103 1.102 1.103c3.526 0 6.396-2.869 6.396-6.396v-6.617c0-0.972-0.219-1.896-0.609-2.722 2.793-0.686 4.872-3.209 4.872-6.209v-1.803C53.04 65.839 54.061 65.708 55.064 64.671zM46.08 71.799c-1.135-1.025-2.639-1.652-4.286-1.652H41.77c-0.004 0-0.009-0.002-0.014-0.002h-6.555c0.305-0.154 0.624-0.379 0.942-0.707 1.141-1.184 1.209-2.562 1.203-2.979l-0.014-0.015c-0.424-0.02-1.83 0.021-3.018 1.166-1.027 0.992-1.043 2.033-0.971 2.535h-0.41c-2.311 0-4.189-1.879-4.189-4.188v-0.717h4.944 3.656 8.709c1.602 0 3.067-0.593 4.191-1.57v3.942C50.246 69.913 48.378 71.787 46.08 71.799z" fill="#65ec0a" data-fill-palette-color="accent"></path><path d="M59.346 16.253c0.362 0.076 1.541 0.207 2.688-0.979 1.143-1.182 1.211-2.561 1.205-2.979l-0.014-0.015c-0.425-0.017-1.832 0.021-3.019 1.167-1.192 1.151-1.022 2.37-0.935 2.736L59.346 16.253z" fill="#65ec0a" data-fill-palette-color="accent"></path><path d="M95 53.438l-0.016-0.017c-0.476-0.019-2.049 0.024-3.377 1.308-0.195 0.188-0.355 0.379-0.49 0.567-0.161-0.409-0.559-0.7-1.024-0.7-0.608 0-1.103 0.494-1.103 1.104V62.1c-0.229-0.547-0.6-1.13-1.191-1.703-1.816-1.752-3.97-1.812-4.617-1.785l-0.022 0.022c-0.009 0.64 0.096 2.75 1.844 4.56 1.634 1.688 3.306 1.633 3.979 1.521-0.104 2.221-1.936 3.997-4.18 3.997H74.611c0.369-0.216 0.75-0.506 1.131-0.896 1.646-1.705 1.744-3.694 1.736-4.299l-0.022-0.021c-0.61-0.023-2.64 0.029-4.351 1.684-1.399 1.352-1.498 2.768-1.418 3.532h-4.75c-2.162 0-3.944-1.646-4.168-3.749h7.146c0.318 0 0.604-0.137 0.807-0.354 0.514-0.043 1.219-0.258 1.912-0.977 1.098-1.135 1.161-2.459 1.157-2.861l-0.017-0.014c-0.406-0.017-1.756 0.021-2.896 1.12-0.319 0.31-0.534 0.621-0.681 0.921-0.092-0.023-0.186-0.043-0.284-0.043h-8.823c-3.525 0-6.396 2.87-6.396 6.396v14.005c0 3.526 2.869 6.396 6.396 6.396 0.609 0 1.104-0.492 1.104-1.103s-0.493-1.103-1.104-1.103c-2.31 0-4.189-1.881-4.189-4.19V76c0.377 0.034 1.092-0.021 1.793-0.746 0.84-0.869 0.89-1.883 0.886-2.189l-0.011-0.013c-0.312-0.013-1.346 0.017-2.221 0.857-0.195 0.19-0.34 0.383-0.447 0.569v-2.754c0.516 0.019 1.367-0.117 2.205-0.982 1.096-1.135 1.162-2.458 1.156-2.86l-0.015-0.015c-0.407-0.016-1.758 0.021-2.896 1.121-0.185 0.177-0.33 0.354-0.451 0.529v-0.365c0-2.129 1.599-3.889 3.658-4.152 0.246 3.305 3.01 5.916 6.375 5.916h9.603c-0.09 0.691-0.058 2.184 1.45 3.643 1.703 1.646 3.693 1.746 4.297 1.736l0.021-0.021c0.024-0.609-0.031-2.64-1.685-4.352-0.451-0.468-0.909-0.786-1.351-1.006H84.8c3.526 0 6.396-2.869 6.396-6.396v-6.6c0.607-0.005 1.541-0.199 2.457-1.148C94.932 55.451 95.007 53.908 95 53.438z" fill="#65ec0a" data-fill-palette-color="accent"></path></g></svg></g></svg></g></svg></g><defs></defs></svg><rect width="395.52" height="155.5216117633578" fill="none" stroke="none" visibility="hidden"></rect></g></svg></g></svg>